<?xml version="1.0" standalone="no"?>
<!DOCTYPE svg PUBLIC "-//W3C//DTD SVG 20010904//EN"
 "http://www.w3.org/TR/2001/REC-SVG-20010904/DTD/svg10.dtd">
<svg version="1.0" xmlns="http://www.w3.org/2000/svg"
 width="460.000000pt" height="460.000000pt" viewBox="0 0 460.000000 460.000000"
 preserveAspectRatio="xMidYMid meet">
<metadata>
Created by potrace 1.14, written by Peter Selinger 2001-2017
</metadata>
<g transform="translate(0.000000,460.000000) scale(0.100000,-0.100000)"
fill="#000000" stroke="none">
<path d="M0 2300 l0 -2300 161 2 162 3 33 115 c18 63 44 147 59 185 15 39 38
120 51 180 23 105 119 419 134 440 4 6 12 24 18 40 44 124 64 168 95 208 19
25 49 75 66 111 48 97 177 204 304 252 40 14 90 35 112 46 l40 19 68 -63 c37
-35 67 -69 67 -75 0 -6 19 -22 43 -36 23 -14 69 -48 101 -77 39 -34 65 -50 77
-47 11 3 22 -1 27 -8 4 -7 18 -15 32 -17 18 -2 46 -31 101 -105 75 -100 89
-128 123 -246 10 -31 21 -55 27 -52 5 4 9 1 9 -5 0 -7 7 -10 15 -6 10 3 15 -1
15 -12 0 -11 13 -23 35 -32 19 -7 32 -17 29 -22 -4 -5 3 -12 14 -15 11 -3 19
-10 16 -17 -3 -7 7 -18 21 -24 23 -11 26 -10 23 6 -2 12 3 17 17 16 33 -1 89
-11 108 -19 9 -4 17 -3 17 3 0 5 11 9 25 9 14 0 34 8 44 17 10 9 25 14 35 10
9 -3 16 -1 16 5 0 6 6 11 14 11 20 0 30 35 17 58 -6 11 -31 25 -56 32 -32 9
-44 17 -41 27 3 8 1 11 -4 8 -6 -3 -10 2 -11 12 0 10 -3 13 -6 6 -2 -7 -11
-13 -19 -13 -9 0 -13 4 -9 9 3 5 1 12 -5 16 -5 3 -10 18 -10 32 0 26 0 26 -22
7 -21 -19 -21 -19 -14 1 5 15 4 17 -4 9 -9 -9 -18 -6 -37 12 -13 12 -30 21
-37 18 -6 -2 -23 7 -36 21 -13 14 -31 25 -41 25 -23 0 -30 12 -18 30 5 8 9 11
9 6 0 -5 10 0 23 12 27 25 113 69 147 75 44 8 77 29 89 53 6 13 15 24 21 24 5
0 10 5 10 10 0 6 12 22 28 36 15 14 21 23 15 19 -8 -4 -13 0 -13 9 0 13 -5 13
-32 -3 -18 -10 -32 -25 -32 -34 1 -13 -7 -16 -42 -13 -25 2 -45 -1 -48 -8 -3
-8 -5 -7 -5 1 -1 6 15 21 34 33 19 12 35 30 35 40 0 23 17 36 59 47 25 6 37
16 42 35 6 25 115 138 132 138 14 0 117 102 117 116 0 8 5 14 10 14 6 0 10 6
10 14 0 8 4 18 10 21 6 3 7 -1 4 -12 -3 -10 3 -4 13 13 10 17 23 29 30 27 6
-2 14 0 17 6 4 6 14 7 23 4 9 -4 14 -2 10 3 -3 6 -2 16 4 24 7 12 9 10 9 -7 0
-12 6 -24 13 -26 10 -4 10 -6 0 -6 -20 -1 -15 -18 7 -24 14 -4 20 -14 20 -35
0 -17 5 -34 10 -37 6 -3 10 -15 10 -26 0 -11 4 -18 9 -15 5 4 8 -2 7 -11 -2
-9 -8 -19 -14 -21 -17 -5 -15 -32 3 -32 8 0 15 7 15 15 0 9 6 12 17 8 11 -4
12 -8 5 -11 -7 -2 -12 -10 -12 -18 0 -9 5 -12 12 -8 8 5 9 -2 5 -23 -5 -26 0
-37 29 -67 39 -40 64 -46 64 -15 0 11 5 17 10 14 6 -3 10 -1 10 5 0 7 11 21
25 32 15 12 25 30 25 45 0 20 4 24 19 20 15 -4 19 0 16 15 -3 16 0 19 16 15
12 -3 22 0 26 9 3 8 11 14 19 14 8 0 14 4 14 9 0 5 16 12 35 15 19 4 35 12 35
19 0 13 77 50 89 43 4 -3 13 -1 21 4 39 24 -109 159 -377 345 -41 28 -24 35
30 13 28 -11 73 -27 98 -33 25 -7 68 -22 95 -33 27 -11 87 -25 134 -31 114
-15 266 -60 430 -127 74 -31 173 -64 220 -74 47 -10 112 -32 145 -48 33 -16
78 -38 100 -48 22 -10 59 -30 82 -46 23 -15 44 -28 48 -28 12 0 99 -63 142
-102 24 -21 47 -38 51 -38 5 0 29 -16 53 -35 24 -19 47 -35 52 -35 4 0 7 720
7 1600 l0 1600 -2300 0 -2300 0 0 -2300z m1700 1273 c0 -7 2 -13 4 -13 2 0 11
-3 20 -6 23 -9 20 15 -4 41 l-21 22 28 -1 c17 -1 27 -6 26 -13 -3 -15 13 -17
22 -3 3 6 15 10 25 10 21 0 37 -40 25 -59 -3 -6 -1 -11 4 -11 6 0 11 7 11 16
0 18 34 11 61 -12 8 -8 21 -14 27 -14 6 0 27 -9 46 -21 19 -11 45 -19 58 -17
19 3 23 -1 23 -26 -1 -28 49 -95 61 -83 10 10 -7 47 -22 47 -8 0 -14 8 -14 18
0 13 8 8 33 -18 22 -23 30 -39 24 -47 -5 -7 -4 -20 2 -32 13 -23 14 -52 4 -50
-25 4 -43 -3 -41 -14 4 -16 -52 -77 -70 -77 -7 0 -12 -6 -11 -12 5 -41 -49
-89 -90 -80 -27 6 -116 -22 -134 -42 -15 -17 -18 -18 -13 -3 7 22 4 21 -24 -3
-14 -12 -21 -27 -17 -39 3 -13 -1 -21 -15 -25 -17 -4 -19 -10 -13 -33 9 -36
13 -39 27 -25 7 7 15 12 20 12 10 0 -2 -33 -17 -45 -17 -15 -28 -65 -14 -65 7
0 17 -8 24 -17 11 -15 15 -15 29 -4 17 14 21 7 17 -26 -3 -24 43 -61 82 -65
20 -2 37 -1 37 3 0 4 18 14 40 23 22 9 40 21 40 27 0 6 7 9 15 6 8 -4 17 -2
20 4 4 5 10 7 15 4 5 -3 11 -1 15 5 10 16 53 12 63 -6 16 -29 52 -12 78 36 13
25 26 44 29 43 3 -2 16 -3 30 -3 22 0 25 4 23 30 -1 17 -8 30 -14 30 -6 0 -23
6 -36 13 -17 8 -66 12 -151 11 -70 -1 -127 2 -127 7 0 5 -6 6 -14 3 -10 -4
-13 0 -9 14 7 27 78 65 113 60 20 -3 27 -1 23 9 -3 7 -1 13 5 13 6 0 12 -5 14
-11 2 -6 25 -11 51 -12 32 -1 47 -6 47 -16 0 -9 6 -11 18 -5 9 4 32 7 51 6 18
-1 40 3 47 9 11 9 14 7 14 -10 0 -18 4 -20 25 -15 18 4 27 1 31 -10 3 -9 15
-16 25 -16 10 0 19 -5 19 -11 0 -5 4 -8 9 -5 5 3 11 -11 14 -30 4 -20 13 -44
21 -53 21 -24 33 -105 30 -206 -4 -128 -7 -148 -22 -164 -8 -8 -11 -22 -9 -32
3 -10 -4 -26 -15 -36 -31 -28 -38 -55 -19 -77 9 -11 11 -16 5 -13 -21 12 -40
-100 -20 -114 4 -4 8 -25 8 -48 -1 -28 4 -44 14 -48 23 -8 16 -32 -16 -60 -27
-22 -30 -31 -29 -76 2 -64 -10 -138 -26 -153 -6 -6 -31 -15 -55 -19 -54 -9
-100 -48 -93 -79 4 -16 2 -18 -5 -7 -9 12 -14 12 -35 -2 -18 -12 -27 -13 -36
-4 -15 15 -14 5 4 -29 8 -16 22 -32 32 -36 16 -6 16 -7 -2 -7 -40 -2 -49 -16
-30 -45 19 -28 8 -34 -24 -14 -15 9 -22 8 -36 -5 -9 -10 -21 -15 -26 -12 -4 3
-11 -6 -15 -20 -4 -15 -15 -27 -29 -31 -12 -3 -22 -11 -22 -17 1 -47 -23 -63
-51 -35 -9 9 -12 8 -12 -5 0 -25 -35 -21 -54 5 -10 15 -16 18 -15 8 3 -34 -1
-42 -18 -36 -9 4 -19 2 -23 -4 -9 -15 -77 -23 -85 -10 -3 5 -12 7 -20 4 -9 -4
-12 0 -9 13 3 10 -5 28 -18 42 -17 19 -18 23 -5 18 18 -7 24 8 7 18 -12 8 -3
46 14 57 6 5 3 8 -10 8 -12 0 -26 11 -34 25 -8 14 -19 24 -26 21 -15 -6 -34
37 -27 63 3 12 -1 29 -8 38 -10 12 -11 15 -1 9 10 -6 11 -1 6 18 -4 18 -2 28
10 32 11 4 14 14 10 34 -5 21 -1 31 17 44 34 23 12 43 -32 27 -41 -14 -75 1
-107 49 l-23 35 42 7 c23 4 46 5 51 2 5 -3 38 -2 74 1 l65 7 -21 20 c-12 11
-27 21 -33 22 -50 9 -75 34 -60 59 4 7 6 20 4 31 -1 10 3 23 11 27 9 6 6 9
-11 9 -34 0 -86 35 -120 82 l-30 41 18 36 c16 31 23 76 46 266 2 17 9 45 15
63 11 29 9 42 -16 108 -23 59 -33 74 -47 70 -9 -2 -24 3 -33 12 -9 8 -28 17
-42 18 -28 3 -41 14 -74 64 -21 31 -28 34 -63 32 -40 -3 -101 19 -88 31 3 4 1
7 -6 7 -34 0 9 127 71 213 13 17 32 49 44 72 11 22 34 49 50 60 32 21 34 25
34 53 0 21 19 43 85 97 27 22 62 53 77 70 l28 29 0 -34 c-1 -19 -7 -52 -15
-73 -11 -33 -11 -45 2 -85 22 -67 31 -71 25 -12 -3 38 1 64 16 98 11 26 26 62
32 79 l12 33 39 -22 c22 -12 39 -28 39 -35z m-490 -253 c0 -5 -4 -10 -10 -10
-5 0 -10 5 -10 10 0 6 5 10 10 10 6 0 10 -4 10 -10z m40 -19 c0 -5 -7 -17 -16
-25 -16 -17 -28 -21 -21 -8 2 4 7 15 10 25 7 18 27 24 27 8z m-99 -79 c-1 -32
-8 -53 -23 -67 -11 -11 -18 -15 -15 -9 3 6 -1 23 -9 38 -18 36 -18 56 1 56 8
0 15 6 15 14 0 14 20 27 29 19 3 -2 4 -25 2 -51z m1759 -122 c0 -5 -5 -10 -11
-10 -5 0 -8 -4 -5 -9 3 -5 19 -7 35 -5 38 4 55 -17 82 -110 25 -83 20 -161
-18 -301 -16 -57 -24 -113 -23 -153 2 -71 -6 -102 -24 -102 -7 0 -21 -9 -31
-20 -26 -28 -82 -26 -120 4 -28 23 -30 29 -37 118 -3 51 -9 134 -13 183 l-6
90 20 -23 c11 -13 22 -18 26 -12 3 5 1 10 -4 10 -18 0 -13 81 6 95 10 7 13 17
8 25 -6 10 -11 9 -20 -4 -11 -15 -13 -15 -19 -1 -3 9 -1 25 4 35 6 10 10 27
10 38 0 11 7 23 16 26 12 4 13 10 6 19 -19 23 12 72 59 95 50 24 59 26 59 12z
m-935 -257 l26 -23 -25 0 c-14 0 -36 -10 -48 -22 -14 -14 -19 -16 -15 -6 7 20
-39 34 -58 18 -21 -17 -27 18 -7 38 10 10 25 27 33 38 8 11 23 26 34 32 18 9
21 7 27 -21 3 -17 18 -42 33 -54z m159 41 c-1 -11 -52 -49 -58 -43 -3 2 1 21
7 41 11 35 13 36 32 24 11 -7 20 -17 19 -22z m-114 16 c0 -5 -4 -10 -9 -10 -6
0 -13 5 -16 10 -3 6 1 10 9 10 9 0 16 -4 16 -10z m-857 -42 c20 -1 39 -8 41
-15 7 -16 -27 -35 -48 -27 -9 4 -23 1 -30 -6 -11 -9 -20 -9 -37 0 l-21 12 23
23 c13 12 27 21 30 19 3 -2 22 -4 42 -6z m220 -82 c24 -18 21 -42 -5 -51 -21
-7 -20 -8 10 -12 17 -2 32 -8 32 -13 0 -16 -55 -70 -71 -70 -10 0 -19 -10 -21
-25 -6 -28 9 -33 44 -14 30 16 50 -13 43 -60 -3 -20 -8 -58 -11 -86 -4 -27
-10 -55 -14 -60 -11 -14 -16 -157 -6 -173 11 -17 -18 -42 -49 -42 -20 0 -26 4
-23 20 5 30 -7 28 -34 -5 -43 -52 -56 -87 -55 -148 2 -55 3 -57 27 -53 14 2
36 -1 49 -6 17 -6 31 -4 47 7 29 19 34 19 34 1 0 -8 7 -17 16 -20 8 -3 12 -11
8 -17 -4 -7 -3 -9 2 -6 6 3 16 2 24 -3 11 -7 11 -11 1 -24 -10 -12 -10 -19 3
-37 9 -14 13 -33 9 -50 -3 -17 0 -35 7 -44 18 -22 -9 -44 -51 -40 -36 3 -102
58 -128 108 -8 15 -18 27 -23 27 -4 0 -8 8 -8 18 0 9 -7 26 -15 36 -8 11 -15
30 -15 43 0 13 -4 23 -10 23 -5 0 -10 11 -10 25 0 16 -6 25 -16 25 -19 0 -44
24 -44 42 -1 17 -24 48 -37 48 -12 0 -43 71 -43 101 0 13 -9 49 -19 79 -16 48
-16 61 -5 103 11 42 11 48 -2 43 -19 -7 -18 1 7 41 17 27 24 31 35 22 8 -6 23
-9 34 -6 11 3 23 1 26 -5 3 -5 18 -7 32 -3 15 3 37 7 50 10 31 6 43 15 36 26
-4 6 -10 7 -17 0 -8 -6 -18 -5 -29 3 -14 10 -11 14 27 25 41 12 92 48 82 58
-3 2 -28 -2 -55 -11 -46 -13 -52 -13 -64 2 -7 9 -8 13 -2 9 7 -4 14 3 18 18 6
24 46 37 46 15 0 -5 8 -10 19 -10 13 0 18 7 17 23 -1 12 9 32 21 45 13 13 23
32 23 42 0 23 26 26 53 6z m-199 -21 c4 -14 21 -34 39 -45 l32 -20 -47 0 c-50
0 -78 18 -78 50 0 17 23 39 41 40 4 0 10 -11 13 -25z m86 15 c0 -5 -4 -10 -10
-10 -5 0 -10 5 -10 10 0 6 5 10 10 10 6 0 10 -4 10 -10z m195 -530 c-3 -5 -12
-10 -18 -10 -7 0 -6 4 3 10 19 12 23 12 15 0z m1036 -63 c-5 -5 -14 -6 -19 -3
-9 5 -9 15 -2 46 0 3 7 -4 15 -14 9 -12 11 -24 6 -29z m-5 -177 c0 -11 -3 -20
-6 -21 -3 0 -13 -2 -23 -4 -15 -3 -14 0 5 21 13 13 23 24 23 24 1 0 1 -9 1
-20z m-300 -362 c3 -4 -1 -5 -10 -4 -8 1 -18 5 -22 8 -3 4 1 5 10 4 8 -1 18
-5 22 -8z"/>
<path d="M2120 3329 c0 -5 5 -7 10 -4 6 3 10 8 10 11 0 2 -4 4 -10 4 -5 0 -10
-5 -10 -11z"/>
<path d="M2060 3310 c0 -5 7 -10 16 -10 8 0 12 5 9 10 -3 6 -10 10 -16 10 -5
0 -9 -4 -9 -10z"/>
<path d="M1745 2782 c-11 -11 -4 -32 11 -32 8 0 12 -4 9 -10 -3 -5 2 -10 12
-10 11 0 24 -5 31 -12 18 -18 27 0 10 19 -9 10 -17 24 -20 32 -4 14 -43 23
-53 13z"/>
<path d="M1787 2484 c-18 -19 37 -61 72 -55 8 2 23 -8 33 -21 10 -13 18 -17
18 -10 0 13 -4 18 -50 58 -28 24 -63 38 -73 28z"/>
<path d="M2094 2332 c4 -7 21 -19 39 -28 34 -18 57 -38 57 -51 0 -4 -36 -8
-81 -7 -62 1 -82 -2 -86 -13 -3 -8 -9 -10 -12 -5 -8 13 -90 22 -97 11 -3 -5
-16 -9 -30 -9 -15 0 -24 -6 -24 -16 0 -14 -3 -14 -15 -4 -12 10 -15 10 -15 -3
0 -21 27 -42 33 -25 4 10 6 10 6 1 1 -16 38 -17 43 -1 3 8 12 6 29 -6 14 -9
29 -13 32 -9 4 3 7 2 7 -4 0 -6 -7 -13 -15 -17 -8 -3 -15 -13 -15 -22 0 -13
-6 -15 -29 -11 -25 5 -51 -6 -51 -23 0 -4 28 0 63 7 34 8 73 15 87 17 14 1 38
6 53 11 43 12 54 -7 28 -44 -13 -17 -27 -31 -32 -31 -5 0 -18 -9 -30 -21 -16
-16 -23 -18 -34 -9 -10 9 -16 7 -23 -7 -6 -10 -10 -21 -11 -25 -1 -5 -1 -9 -2
-10 -22 -72 31 -38 148 95 44 49 60 57 69 32 8 -19 33 -19 57 -1 23 18 16 69
-19 141 -20 40 -34 55 -67 69 -68 29 -71 30 -63 18z m-54 -172 c-20 -13 -40
-12 -40 1 0 6 7 9 15 6 8 -4 17 -2 21 4 3 6 9 8 12 4 4 -3 0 -10 -8 -15z"/>
<path d="M1840 2310 c0 -5 7 -7 15 -4 8 4 15 8 15 10 0 2 -7 4 -15 4 -8 0 -15
-4 -15 -10z"/>
<path d="M1725 2291 c-6 -11 9 -23 19 -14 9 9 7 23 -3 23 -6 0 -12 -4 -16 -9z"/>
<path d="M1695 2230 c-4 -6 -14 -9 -22 -8 -9 2 -18 -3 -20 -9 -3 -8 3 -13 14
-13 18 1 53 22 53 34 0 10 -18 7 -25 -4z"/>
<path d="M1794 2196 c-3 -9 -10 -14 -14 -11 -4 3 -13 -2 -20 -10 -11 -13 -7
-15 29 -13 43 1 53 16 26 38 -12 10 -16 9 -21 -4z"/>
<path d="M1716 2154 c-4 -10 -1 -14 6 -12 15 5 23 28 10 28 -5 0 -13 -7 -16
-16z"/>
<path d="M1894 1975 c-10 -8 -30 -15 -44 -16 -20 -1 -18 -3 12 -11 33 -9 40
-7 63 16 23 23 24 26 7 26 -10 0 -27 -7 -38 -15z"/>
<path d="M1748 1942 c-16 -2 -28 -8 -28 -13 0 -8 48 -2 59 7 8 7 -4 9 -31 6z"/>
<path d="M2238 1873 c6 -2 18 -2 25 0 6 3 1 5 -13 5 -14 0 -19 -2 -12 -5z"/>
<path d="M1872 1570 c-7 -11 -8 -20 -3 -20 9 0 24 30 18 36 -1 2 -8 -6 -15
-16z"/>
<path d="M2889 2690 c-13 -10 -19 -19 -13 -20 6 0 19 9 29 20 23 26 14 26 -16
0z"/>
<path d="M2793 2635 c-17 -19 -17 -85 0 -85 14 0 38 67 30 87 -6 16 -15 16
-30 -2z"/>
<path d="M3160 1180 c0 -6 7 -10 15 -10 8 0 15 2 15 4 0 2 -7 6 -15 10 -8 3
-15 1 -15 -4z"/>
<path d="M1448 1173 c7 -3 16 -2 19 1 4 3 -2 6 -13 5 -11 0 -14 -3 -6 -6z"/>
<path d="M1368 1163 c6 -2 18 -2 25 0 6 3 1 5 -13 5 -14 0 -19 -2 -12 -5z"/>
<path d="M1209 1083 c-13 -16 -12 -17 4 -4 9 7 17 15 17 17 0 8 -8 3 -21 -13z"/>
<path d="M3435 1030 c3 -5 8 -10 11 -10 2 0 4 5 4 10 0 6 -5 10 -11 10 -5 0
-7 -4 -4 -10z"/>
<path d="M3480 883 c0 -13 5 -23 10 -23 13 0 13 11 0 30 -8 12 -10 11 -10 -7z"/>
<path d="M1085 810 c-3 -5 -1 -10 4 -10 6 0 11 5 11 10 0 6 -2 10 -4 10 -3 0
-8 -4 -11 -10z"/>
<path d="M1057 763 c-4 -3 -7 -13 -7 -22 1 -13 3 -13 11 2 11 19 8 33 -4 20z"/>
<path d="M1027 671 c-4 -17 -3 -21 5 -13 5 5 8 16 6 23 -3 8 -7 3 -11 -10z"/>
<path d="M1011 584 c0 -11 3 -14 6 -6 3 7 2 16 -1 19 -3 4 -6 -2 -5 -13z"/>
<path d="M2266 533 c-4 -9 -1 -20 5 -24 19 -11 0 -30 -25 -23 -18 4 -25 1 -29
-15 -6 -25 -1 -30 23 -24 11 3 17 10 13 16 -4 6 -1 7 6 3 7 -5 29 -5 49 -1 34
6 35 8 18 21 -10 7 -24 15 -30 18 -7 3 -6 8 3 14 15 11 7 32 -14 32 -7 0 -16
-8 -19 -17z"/>
<path d="M2225 520 c3 -5 8 -10 11 -10 2 0 4 5 4 10 0 6 -5 10 -11 10 -5 0 -7
-4 -4 -10z"/>
<path d="M3641 114 c0 -11 3 -14 6 -6 3 7 2 16 -1 19 -3 4 -6 -2 -5 -13z"/>
</g>
</svg>
